# xmcd
#
# Track frame offsets: 
#        150
#        11150
#        24532
#        36902
#        48855
#        60405
#        75535
#        87822
#        103510
#        113677
#        123575
#        135087
#        147489
#        157573
#        167691
#        174931
#        175606
#        185623
#
# Disc length: 2603 seconds
#
# Revision: 0
# Processed by: cddbd v1.5.2PL0 Copyright (c) Steve Scherf et al.
# Submitted via: ExactAudioCopy v1.0b3
#
DISCID=d20a2912
DTITLE=Patti Page - Christmas With Patti Page
DYEAR=1955
DGENRE=Christmas - Vocal
TTITLE0=Jingle Bells
TTITLE1=Silent Night
TTITLE2=Christmas Choir
TTITLE3=The First Noel
TTITLE4=Christmas Bells
TTITLE5=White Christmas
TTITLE6=Santa Claus Is Coming To Town
TTITLE7=The Christmas Song
TTITLE8=Pretty Snowflakes
TTITLE9=I Wanna Go Skating With Willie
TTITLE10=Where Did My Snowman Go?
TTITLE11=The Mama Doll Song
TTITLE12=Boogie Woogie Santa Claus (Mercury single, 1950)
TTITLE13=Little Donkey (Mercury single, 1959)
TTITLE14=Home For The Holidays (from The Patti Page Show, 1955)
TTITLE15=Christmas Greetings From Patti (Radio Spot)
TTITLE16=The Christmas Song (from The Patti Page Show, 1955)
TTITLE17=Silent Night (from The Patti Page Show, 1955)
EXTD=
EXTT0=
EXTT1=
EXTT2=
EXTT3=
EXTT4=
EXTT5=
EXTT6=
EXTT7=
EXTT8=
EXTT9=
EXTT10=
EXTT11=
EXTT12=
EXTT13=
EXTT14=
EXTT15=
EXTT16=
EXTT17=
PLAYORDER=
